<svg xmlns="http://www.w3.org/2000/svg" width="140" height="17" viewBox="0 0 140 17">
  <g id="logo-black" transform="translate(0 0.005)">
    <path id="Контур_1051" data-name="Контур 1051" d="M306.041,603.38l-1.852,5.078,2.221,5.078h-3.957l-1.225,3.25h6.317l1.108,2.889H313.1l-6.318-16.3h-.74Zm118.526,0v16.3h10.112v-3.591h-5.717V603.378h-4.4Zm-14.347,0h4.1l-5.945,16.3H403.9Zm7.659,16.3-1.108-2.889h-6.318l1.225-3.25h3.957l-2.221-5.078,1.851-5.078h.741l6.317,16.3h-4.444Zm-13.65-12.707V603.38H391.8v3.588h4.025v12.707h4.35V606.968h4.049ZM384.7,604.282v15.393h4.466v-16.3Zm-11.619,9.525h3.564a3.086,3.086,0,0,1-.417,1.2,2.947,2.947,0,0,1-.787.812,3.673,3.673,0,0,1-1.065.453,5.679,5.679,0,0,1-1.225.135,4.568,4.568,0,0,1-1.9-.362,3.707,3.707,0,0,1-1.365-.992,4.434,4.434,0,0,1-.833-1.513,6.571,6.571,0,0,1,.046-3.95,4.875,4.875,0,0,1,.879-1.58,4.046,4.046,0,0,1,1.366-1.016,4.335,4.335,0,0,1,1.781-.361,3.6,3.6,0,0,1,2.083.587,3.162,3.162,0,0,1,1.369,1.523l4.446-.928a7.654,7.654,0,0,0-3.338-3.733A9.268,9.268,0,0,0,373.1,603a10.634,10.634,0,0,0-3.656.61,8.165,8.165,0,0,0-2.8,1.738,7.533,7.533,0,0,0-1.782,2.686,9.793,9.793,0,0,0,0,6.929,7.853,7.853,0,0,0,1.782,2.686,7.754,7.754,0,0,0,2.754,1.738,9.516,9.516,0,0,0,3.54.609,11,11,0,0,0,2.707-.34,9.006,9.006,0,0,0,2.361-.993,7.526,7.526,0,0,0,1.874-1.625,7.63,7.63,0,0,0,1.249-2.234,8.114,8.114,0,0,0,.44-1.941c.069-.768.117-1.557.117-2.323H373.1l-.023,3.273h0Zm-15.967-9.525v15.393h4.466v-16.3Zm-3.283,4.154a8.055,8.055,0,0,0-1.782-2.6,8.824,8.824,0,0,0-2.661-1.783,8.014,8.014,0,0,0-3.24-.68h-6.529v16.3h6.526a8.035,8.035,0,0,0,3.263-.677,8.819,8.819,0,0,0,2.661-1.783,8.068,8.068,0,0,0,1.782-2.6A7.666,7.666,0,0,0,353.829,608.436Zm-4.281,4.9a4.044,4.044,0,0,1-.949,1.445,4.428,4.428,0,0,1-1.527.948,5.212,5.212,0,0,1-2.036.34h-1.018v-9.1h1.018a6.084,6.084,0,0,1,2.013.34,4.433,4.433,0,0,1,1.527.948,4.051,4.051,0,0,1,.949,1.445,5.087,5.087,0,0,1,.02,3.633Zm-21.312.249a3.354,3.354,0,0,0-.6-1.174,3.7,3.7,0,0,0-1.087-.88,5.667,5.667,0,0,0-1.62-.519,3.82,3.82,0,0,0,1.944-1.422,4.16,4.16,0,0,0,.463-2.032,3.9,3.9,0,0,0-1.3-3.069,5.223,5.223,0,0,0-3.564-1.083h-7.058l-.023,16.273h7.127a9.98,9.98,0,0,0,2.453-.293,5.215,5.215,0,0,0,1.852-.9,4.161,4.161,0,0,0,1.18-1.49,4.384,4.384,0,0,0,.417-2.031,4.6,4.6,0,0,0-.187-1.377Zm-8.423-6.953h.81c1.389,0,2.546,0,2.546,1.581s-1.157,1.58-2.546,1.58h-.81v-3.162Zm3.818,8.894a1.745,1.745,0,0,1-.463.453,5.145,5.145,0,0,1-2.383.406h-.972v-3.453h.972a5.1,5.1,0,0,1,2.384.406,1.57,1.57,0,0,1,.46,2.186Zm11.766,4.153H331v-4.29H335.4v4.288Z" transform="translate(-294.679 -603)" fill="#111" fill-rule="evenodd"/>
    <path id="Контур_1052" data-name="Контур 1052" d="M296.317,603.674h4.073l-5.924,16.282H290Z" transform="translate(-290 -603.287)" fill="#e6007e" fill-rule="evenodd"/>
  </g>
</svg>
